<svg class="prefix__icon" viewBox="0 0 1024 1024" xmlns="http://www.w3.org/2000/svg" width="32" height="32"><path d="M512 128c247.424 0 448 200.576 448 448 0 102.272-34.656 199.36-97.184 278.144a32 32 0 01-37.6 9.536A797.024 797.024 0 00511.36 800a797.024 797.024 0 00-312.576 63.68 32 32 0 01-37.6-9.536A445.824 445.824 0 0164 576c0-247.424 200.576-448 448-448zm0 64c-212.096 0-384 171.904-384 384 0 75.712 22.144 148.032 62.72 209.856l6.368 9.408 12.256-4.736a861.024 861.024 0 01283.072-54.304l-.32-.032 119.296-238.496a32 32 0 0158.72 25.184l-1.504 3.424-105.6 211.2c86.816 5.056 171.392 23.008 251.648 53.024l12.224 4.736 6.4-9.408a381.12 381.12 0 0062.528-197.92L896 576c0-212.096-171.904-384-384-384zM256 544a32 32 0 013.744 63.776L256 608h-64a32 32 0 01-3.744-63.776L192 544h64zm576 0a32 32 0 013.744 63.776L832 608h-64a32 32 0 01-3.744-63.776L768 544h64zM305.344 324.448l3.008 2.656 45.248 45.248a32 32 0 01-42.24 47.904l-3.008-2.656-45.248-45.248a32 32 0 0142.24-47.904zm455.552 2.656a32 32 0 012.688 42.24l-2.688 3.008-45.248 45.248a32 32 0 01-47.904-42.24l2.656-3.008 45.248-45.248a32 32 0 0145.248 0zM512 224a32 32 0 0131.776 28.256L544 256v64a32 32 0 01-63.776 3.744L480 320v-64a32 32 0 0132-32z"/></svg>