<?xml version="1.0" standalone="no"?><!DOCTYPE svg PUBLIC "-//W3C//DTD SVG 1.1//EN" "http://www.w3.org/Graphics/SVG/1.1/DTD/svg11.dtd"><svg t="1618393369259" class="icon" viewBox="0 0 1024 1024" version="1.1" xmlns="http://www.w3.org/2000/svg" p-id="3023" xmlns:xlink="http://www.w3.org/1999/xlink" width="200" height="200"><defs><style type="text/css"></style></defs><path d="M808.727273 1024H215.272727C160.674909 1023.953455 116.410182 978.106182 116.363636 921.506909V511.534545c0.046545-56.599273 44.311273-102.4 98.909091-102.49309h593.454546c54.597818 0.046545 98.862545 45.893818 98.909091 102.49309v409.972364c-0.046545 56.599273-44.311273 102.4-98.909091 102.493091zM215.272727 477.370182a33.605818 33.605818 0 0 0-32.954182 34.164363v409.972364c0 18.850909 14.754909 34.164364 32.954182 34.164364h593.454546a33.605818 33.605818 0 0 0 32.954182-34.164364V511.534545a33.605818 33.605818 0 0 0-32.954182-34.164363H215.272727z" fill="#8a8a8a" p-id="3024"></path><path d="M513.396364 852.386909c-73.029818 0-132.189091-61.067636-132.189091-136.378182s59.159273-136.378182 132.189091-136.378182c72.983273 0 132.189091 61.067636 132.189091 136.378182-0.093091 75.264-59.252364 136.285091-132.189091 136.378182z m0-204.567273c-36.538182 0-66.094545 30.533818-66.094546 68.189091s29.556364 68.189091 66.094546 68.189091c36.491636 0 66.094545-30.533818 66.094545-68.189091-0.046545-37.655273-29.602909-68.142545-66.094545-68.189091z m264.378181-170.496a33.605818 33.605818 0 0 1-33.047272-34.071272v-136.378182c0-131.816727-103.563636-238.685091-231.330909-238.685091-127.767273 0-231.330909 106.868364-231.330909 238.685091v136.378182a33.605818 33.605818 0 0 1-33.047273 34.071272 33.605818 33.605818 0 0 1-33.047273-34.071272v-136.378182C215.970909 137.402182 349.090909 0 513.396364 0c164.258909 0 297.425455 137.402182 297.425454 306.874182v136.378182a33.605818 33.605818 0 0 1-33.047273 34.071272z" fill="#8a8a8a" p-id="3025"></path></svg>