<svg class="prefix__icon" viewBox="0 0 1092 1024" xmlns="http://www.w3.org/2000/svg" width="32" height="32"><path d="M121.105 198.997H667.58c234.837 0 425.301 172.51 425.301 385.434 0 212.855-190.464 385.502-425.301 385.502H253.27c-21.163 0-38.298-15.565-38.298-34.68s17.135-34.68 38.23-34.68h414.446c192.512 0 348.843-141.584 348.843-316.074 0-174.626-156.194-316.143-348.843-316.143h-531.66L265.83 386.048c15.02 13.585 15.02 35.499 0 49.084a41.097 41.097 0 01-54.135 0L11.81 253.952a32.358 32.358 0 01-8.328-37.751 33.382 33.382 0 0110.58-18.432L205.483 24.37a41.165 41.165 0 0154.136 0c15.019 13.517 15.019 35.499 0 49.016l-138.581 125.61z"/></svg>