<?xml version="1.0" standalone="no"?><!DOCTYPE svg PUBLIC "-//W3C//DTD SVG 1.1//EN" "http://www.w3.org/Graphics/SVG/1.1/DTD/svg11.dtd"><svg t="1618393270499" class="icon" viewBox="0 0 1024 1024" version="1.1" xmlns="http://www.w3.org/2000/svg" p-id="2026" xmlns:xlink="http://www.w3.org/1999/xlink" width="200" height="200"><defs><style type="text/css"></style></defs><path d="M512 555.2c-134.55 0-243.9-109.35-243.9-243.9 0-134.55 109.35-243.9 243.9-243.9s243.9 109.35 243.9 243.9c0 134.55-109.35 243.9-243.9 243.9z m0-420.75c-97.65 0-176.85 79.2-176.85 176.85 0 97.65 79.2 176.85 176.85 176.85s176.85-79.2 176.85-176.85c0-97.65-79.2-176.85-176.85-176.85z" fill="#8a8a8a" p-id="2027"></path><path d="M913.85 952.1c-18.45 0-33.75-9.9-33.75-28.35 0-202.95-165.15-368.1-368.1-368.1s-368.1 165.15-368.1 368.1c0 18.45-14.85 28.35-33.75 28.35s-33.75-9.9-33.75-28.35c0-239.85 195.3-435.15 435.15-435.15s435.15 195.3 435.15 435.15c0.45 18.45-14.4 28.35-32.85 28.35z" fill="#8a8a8a" p-id="2028"></path><path d="M921.5 952.55H102.05c-13.95 0-25.65-11.7-25.65-25.65v-6.75c0-13.95 11.7-25.65 25.65-25.65h819c13.95 0 25.65 11.7 25.65 25.65v6.75c0.45 13.95-11.25 25.65-25.2 25.65z" fill="#8a8a8a" p-id="2029"></path></svg>